<?xml version="1.0" encoding="UTF-8"?>
<!-- Created with Inkscape (http://www.inkscape.org/) -->
<svg width="64" height="64" version="1.1" viewBox="0 0 64 64" xml:space="preserve" xmlns="http://www.w3.org/2000/svg" xmlns:xlink="http://www.w3.org/1999/xlink"><defs><linearGradient id="linearGradient10458" x1=".0041944" x2="81.916" y1=".0041868" y2="81.916" gradientUnits="userSpaceOnUse"><stop stop-color="#ef7d57" offset="0"/><stop stop-color="#5d275d" offset="1"/></linearGradient></defs><g transform="scale(.78125)"><rect width="81.92" height="81.92" fill="url(#linearGradient10458)" image-rendering="auto" style="paint-order:stroke fill markers"/><path d="m34.72 73.704c-9.8427-1.2352-17.219-5.1178-19.819-10.432-0.80784-1.6512-1.0477-1.8683-3.184-2.8829-9.9143-4.7083-8.6226-17.085 1.883-18.042 2.8576-0.2604 3.0587-0.62225 1.0238-1.8421-12.986-7.7851 19.569-15.525 43.616-10.369 11.39 2.442 15.09 7.0326 8.491 10.533-1.9813 1.0511-1.8902 1.5709 0.27526 1.5709 7.17 0 11.034 5.1884 8.9905 12.071-0.8294 2.7929-5.956 7.1292-8.4286 7.1292-0.17115 0-0.62038 0.6387-0.99827 1.4193-3.8116 7.8737-17.738 12.615-31.85 10.844zm35.423-17.916c2.7093-2.849 2.6098-8.1818-0.17729-9.5044-1.5025-0.71297-2.9047-0.70696-2.6291 0.01126 0.62428 1.6269 0.91048 3.8717 0.91905 7.2087 0.01062 4.1312 0.06668 4.199 1.8874 2.2845zm-57.136-2.5875c-0.22349-2.2367 0.34691-5.5362 0.84586-6.507 0.9191-1.7883-0.67129-1.2412-2.2429-0.57152-3.6594 1.5592-2.7433 9.7435 1.3489 10.755 0.06972 0.01723 0.25-1.6561 0.04813-3.6764zm35.633-10.339c12.612-1.1551 19.267-4.6689 15.813-8.3489-3.9395-4.1978-21.854-5.3997-34.708-3.721-1.0194 0.13314-2.007 0.28439-2.9533 0.4537-4.4243 0.79163-7.9451 1.9781-9.5921 3.5535-5.2571 5.0288 13.117 9.741 31.44 8.0628zm-16.77-17.666c-3.5058-2.0047-3.7601-5.1764-0.81596-10.179 1.7657-3 2.0045-4.5634 1.1372-7.4451-0.52742-1.7525-0.25267-1.8997 1.4295-0.76612 3.8798 2.6146 4.2405 7.1231 0.92888 11.609-1.9526 2.6451-2.226 3.858-1.3414 5.9517 0.74875 1.7722 0.53877 1.9023-1.3382 0.82901zm8.274 0.27515c-3.0312-1.3203-4.1284-5.7109-2.191-8.7677 2.0564-3.2446 2.4654-4.0791 2.6046-5.3141 0.09014-0.79968-0.06891-2.1442-0.38036-3.2156-0.63971-2.2005-0.5076-2.4158 0.98804-1.6104 4.1149 2.216 4.733 7.3916 1.3946 11.678-1.9611 2.518-2.3345 4.1486-1.44 6.2894 0.68311 1.6349 0.66294 1.6544-0.97587 0.94053zm7.6959-0.14851c-3.7436-2.3251-3.9974-5.4782-0.83999-10.436 1.7126-2.6893 1.8793-4.3505 0.81126-8.0849-0.33386-1.1674 0.58012-0.88129 2.3937 0.74927 3.1319 2.8159 3.3234 6.5215 0.53286 10.312-2.3182 3.1491-2.601 4.3147-1.6178 6.6679 0.69901 1.673 0.41819 1.8467-1.28 0.79202z" fill="#1a1c2c" stroke="#f4f4f4" stroke-width="4.5" style="paint-order:stroke fill markers"/><path d="m37.094 43.089c-7.6521-0.35828-14.551-1.7411-18.125-3.633-1.2017-0.63613-2.1163-1.4182-2.4406-2.0868-0.44129-0.90982-0.08766-1.9103 0.98207-2.7784 2.8535-2.3157 9.4828-3.8314 19.177-4.3845 1.816-0.10362 8.3311-0.10305 10.031 8.72e-4 3.0489 0.18636 5.3867 0.41448 7.474 0.72929 5.1274 0.77333 8.61 1.9866 10.146 3.5346 1.8385 1.8533 1.0545 3.7508-2.204 5.3341-3.585 1.7419-9.9443 2.9399-17.447 3.2868-1.553 0.0718-6.0347 0.07007-7.5938-0.0029z" fill="#ef7d57" stroke="#000" stroke-width=".281" style="paint-order:stroke fill markers"/><g transform="matrix(-1 0 0 1 -43.947 -24.564)" fill="#b13e53"><path transform="scale(1,-1)" d="m-69.557-63.631a3.2572 3.2572 0 0 1-1.6286 2.8208 3.2572 3.2572 0 0 1-3.2572 0 3.2572 3.2572 0 0 1-1.6286-2.8208" style="paint-order:stroke fill markers"/><path transform="scale(1,-1)" d="m-78.43-58.549a2.2463 2.2463 0 0 1-1.1231 1.9453 2.2463 2.2463 0 0 1-2.2463 0 2.2463 2.2463 0 0 1-1.1231-1.9453" style="paint-order:stroke fill markers"/><path transform="scale(1,-1)" d="m-85.418-64.702a2.2463 2.2463 0 0 1-1.1231 1.9453 2.2463 2.2463 0 0 1-2.2463 0 2.2463 2.2463 0 0 1-1.1231-1.9453" style="paint-order:stroke fill markers"/><path transform="scale(1,-1)" d="m-94.275-60.892a3.2572 3.2572 0 0 1-1.6286 2.8208 3.2572 3.2572 0 0 1-3.2572 0 3.2572 3.2572 0 0 1-1.6286-2.8208" style="paint-order:stroke fill markers"/></g><g transform="matrix(.17521 0 0 .17521 27.033 48.425)"><path d="m154 17.5c-1.82-6.73-7.07-12-13.8-13.8-9.04-3.49-96.6-5.2-122 0.1-6.73 1.82-12 7.07-13.8 13.8-4.08 17.9-4.39 56.6 0.1 74.9 1.82 6.73 7.07 12 13.8 13.8 17.9 4.12 103 4.7 122 0 6.73-1.82 12-7.07 13.8-13.8 4.35-19.5 4.66-55.8-0.1-75z" fill="#df2020"/><path d="m105 55-40.8-23.4v46.8z" fill="#f4f4f4"/></g></g></svg>
