<?xml version="1.0" encoding="UTF-8" standalone="no"?>
<!-- Created with Inkscape (http://www.inkscape.org/) -->

<svg
   version="1.1"
   id="svg353"
   width="64"
   height="64"
   viewBox="0 0 64 64"
   xml:space="preserve"
   xmlns:xlink="http://www.w3.org/1999/xlink"
   xmlns="http://www.w3.org/2000/svg"
   xmlns:svg="http://www.w3.org/2000/svg"><defs
     id="defs357"><linearGradient
       id="linearGradient10456"><stop
         style="stop-color:#ef7d57;stop-opacity:1;"
         offset="0"
         id="stop10452" /><stop
         style="stop-color:#5d275d;stop-opacity:1;"
         offset="1"
         id="stop10454" /></linearGradient><linearGradient
       xlink:href="#linearGradient10456"
       id="linearGradient10458"
       x1="0.0041943826"
       y1="0.0041867532"
       x2="81.915802"
       y2="81.915794"
       gradientUnits="userSpaceOnUse" /></defs><g
     id="g359"
     style="display:inline"
     transform="scale(0.78125002)"><rect
       style="display:inline;fill:url(#linearGradient10458);fill-opacity:1;stroke:none;stroke-width:1.87795;stroke-linecap:butt;stroke-dasharray:none;stroke-opacity:1;paint-order:stroke fill markers;image-rendering:auto"
       id="rect10377"
       width="81.919998"
       height="81.919998"
       x="0"
       y="0" /><path
       style="display:inline;fill:#1a1c2c;fill-opacity:1;stroke:#f4f4f4;stroke-width:4.5;stroke-linecap:butt;stroke-dasharray:none;stroke-opacity:1;paint-order:stroke fill markers"
       d="M 34.719999,73.703627 C 24.877348,72.468392 17.501007,68.585794 14.901107,63.271787 14.09327,61.620629 13.853392,61.403439 11.717105,60.38892 1.8028001,55.680639 3.0944714,43.304053 13.600062,42.346735 16.457637,42.086338 16.658744,41.724482 14.623854,40.504594 1.6375638,32.7195 34.193193,24.979977 58.239999,30.135631 c 11.389942,2.442013 15.09037,7.032557 8.491033,10.533498 -1.981258,1.051052 -1.89017,1.57087 0.275258,1.57087 7.169974,0 11.034396,5.188429 8.990543,12.070828 -0.829398,2.792893 -5.956022,7.129172 -8.428556,7.129172 -0.171152,0 -0.620375,0.638697 -0.998269,1.419324 C 62.758421,70.733006 48.83205,75.474664 34.719999,73.703627 Z M 70.143022,55.787538 c 2.709296,-2.849037 2.609821,-8.181818 -0.177289,-9.50439 -1.502477,-0.71297 -2.904743,-0.706957 -2.62913,0.01126 0.624282,1.626851 0.910477,3.871664 0.919053,7.208665 0.01062,4.131171 0.06668,4.19904 1.887366,2.284451 z M 13.006946,53.199999 c -0.223492,-2.236718 0.346911,-5.53615 0.845858,-6.506973 0.919104,-1.788338 -0.67129,-1.241159 -2.242891,-0.571516 -3.6594187,1.55924 -2.7432579,9.743453 1.348903,10.754856 0.06972,0.01723 0.249997,-1.656068 0.04813,-3.676367 z M 48.639999,42.860764 c 12.61168,-1.155101 19.266954,-4.668875 15.813334,-8.348938 -3.939511,-4.197813 -21.854061,-5.399738 -34.707975,-3.721044 -1.019428,0.133135 -2.007025,0.284389 -2.953296,0.453704 -4.424269,0.79163 -7.945134,1.97808 -9.592062,3.553475 -5.257115,5.028776 13.117492,9.740953 31.439999,8.062803 z M 31.870085,25.194735 C 28.364248,23.19 28.109997,20.018308 31.054129,15.015991 c 1.765675,-3.000022 2.004465,-4.563385 1.137189,-7.4451333 -0.527416,-1.7524671 -0.25267,-1.899717 1.429468,-0.7661244 3.87976,2.6145702 4.240496,7.1231077 0.928877,11.6092687 -1.952598,2.645133 -2.225955,3.858008 -1.341385,5.951723 0.748748,1.772233 0.538774,1.902312 -1.338193,0.82901 z m 8.274048,0.275154 c -3.031209,-1.320314 -4.128415,-5.710947 -2.191024,-8.767728 2.05642,-3.244586 2.46545,-4.079101 2.60465,-5.314092 0.09014,-0.799677 -0.06891,-2.1442103 -0.380365,-3.2155902 -0.639709,-2.2005218 -0.5076,-2.4158447 0.988035,-1.6103913 4.114893,2.2160163 4.73296,7.3915985 1.39457,11.6779125 -1.961123,2.517976 -2.334467,4.148597 -1.44,6.289357 0.68311,1.634911 0.662941,1.65435 -0.975866,0.940532 z m 7.695866,-0.148514 c -3.743638,-2.325083 -3.997427,-5.478234 -0.839994,-10.436455 1.712579,-2.689318 1.879264,-4.350496 0.811261,-8.0849202 -0.333856,-1.1673817 0.580118,-0.8812911 2.393693,0.7492666 3.13192,2.8158646 3.323401,6.5215386 0.532864,10.3122156 -2.318218,3.149076 -2.601037,4.314717 -1.617824,6.667875 0.699008,1.67296 0.418189,1.846721 -1.28,0.792018 z"
       id="path466" /><path
       style="display:inline;fill:#ef7d57;fill-opacity:1;stroke:#000000;stroke-width:0.281;stroke-linecap:butt;stroke-dasharray:none;stroke-opacity:1;paint-order:stroke fill markers"
       d="m 37.09375,43.088934 c -7.652051,-0.358283 -14.551153,-1.741148 -18.125,-3.632997 -1.201696,-0.636129 -2.116319,-1.418163 -2.440638,-2.086828 -0.441286,-0.909823 -0.08766,-1.910264 0.982074,-2.778387 2.853479,-2.315687 9.482805,-3.831354 19.177314,-4.384523 1.815976,-0.10362 8.331054,-0.103053 10.03125,8.72e-4 3.048891,0.186365 5.386734,0.414485 7.47398,0.72929 5.127367,0.773326 8.610002,1.986637 10.145632,3.534624 1.838537,1.853331 1.054502,3.75081 -2.20404,5.334104 -3.584996,1.741913 -9.94429,2.939929 -17.446822,3.286773 -1.553038,0.0718 -6.034703,0.07007 -7.59375,-0.0029 z"
       id="path3723" /><g
       id="layer1"
       transform="matrix(-1,0,0,1,-43.946678,-24.56445)"
       style="display:inline"><path
         style="display:inline;fill:#b13e53;fill-opacity:1;stroke:none;stroke-width:0.273677;stroke-linecap:butt;stroke-dasharray:none;stroke-opacity:1;paint-order:stroke fill markers"
         id="path9256"
         d="m -69.557148,-63.631039 a 3.2572055,3.2572055 0 0 1 -1.628603,2.820823 3.2572055,3.2572055 0 0 1 -3.257206,0 3.2572055,3.2572055 0 0 1 -1.628602,-2.820823"
         transform="scale(1,-1)" /><path
         style="display:inline;fill:#b13e53;fill-opacity:1;stroke:none;stroke-width:0.188738;stroke-linecap:butt;stroke-dasharray:none;stroke-opacity:1;paint-order:stroke fill markers"
         id="path10081"
         d="m -78.43034,-58.548569 a 2.2462955,2.2462955 0 0 1 -1.123148,1.945349 2.2462955,2.2462955 0 0 1 -2.246296,0 2.2462955,2.2462955 0 0 1 -1.123147,-1.945349"
         transform="scale(1,-1)" /><path
         style="display:inline;fill:#b13e53;fill-opacity:1;stroke:none;stroke-width:0.188738;stroke-linecap:butt;stroke-dasharray:none;stroke-opacity:1;paint-order:stroke fill markers"
         id="path10083"
         d="m -85.418133,-64.701843 a 2.2462955,2.2462955 0 0 1 -1.123148,1.945349 2.2462955,2.2462955 0 0 1 -2.246295,0 2.2462955,2.2462955 0 0 1 -1.123148,-1.945349"
         transform="scale(1,-1)" /><path
         style="display:inline;fill:#b13e53;fill-opacity:1;stroke:none;stroke-width:0.273677;stroke-linecap:butt;stroke-dasharray:none;stroke-opacity:1;paint-order:stroke fill markers"
         id="path10085"
         d="m -94.274868,-60.892471 a 3.2572055,3.2572055 0 0 1 -1.628603,2.820822 3.2572055,3.2572055 0 0 1 -3.257206,0 3.2572055,3.2572055 0 0 1 -1.628603,-2.820822"
         transform="scale(1,-1)" /></g><g
       id="g10146"
       transform="matrix(0.17520934,0,0,0.17520934,27.033482,48.425258)"
       style="display:inline"><path
         d="M 154,17.5 C 152.18,10.77 146.93,5.5 140.2,3.7 131.16,0.21 43.6,-1.5 18.2,3.8 11.47,5.62 6.2,10.87 4.4,17.6 0.32,35.5 0.01,74.2 4.5,92.5 c 1.82,6.73 7.07,12 13.8,13.8 17.9,4.12 103,4.7 122,0 6.73,-1.82 12,-7.07 13.8,-13.8 4.35,-19.5 4.66,-55.8 -0.1,-75 z"
         fill="#ff0000"
         id="path10134"
         style="fill:#df2020;fill-opacity:1" /><path
         d="M 105,55 64.2,31.6 v 46.8 z"
         fill="#ffffff"
         id="path10136"
         style="fill:#f4f4f4;fill-opacity:1" /></g></g></svg>
